<svg width="73" height="32" viewBox="0 0 73 32" fill="none" xmlns="http://www.w3.org/2000/svg">
<path fill-rule="evenodd" clip-rule="evenodd" d="M67.7863 32C70.3726 32.0002 72.4687 29.9861 72.4689 27.5024L72.4706 4.50176C72.4708 2.01808 70.3749 0.00444947 67.7886 0.00427126L4.68435 1.03322e-08C2.09802 -0.000166538 0.00187592 2.01317 0.00169517 4.49685L1.1949e-08 27.4975C-0.000182728 29.9812 2.09567 31.9956 4.68201 31.9957L67.7863 32Z" fill="#295EAC"/>
<path fill-rule="evenodd" clip-rule="evenodd" d="M5.34657 31.0337C2.81666 31.0335 1.02656 29.3611 1.02674 26.99L1.02834 5.00377C1.02852 2.63369 2.81885 0.961238 5.34877 0.961411L67.1243 0.965594C69.6539 0.965765 71.444 2.63844 71.4439 5.00853L71.4423 26.9948C71.4421 29.3658 69.6517 31.038 67.1221 31.0378L5.34657 31.0337ZM66.4379 30.1263C68.9104 30.1265 70.3994 28.7802 70.3996 26.5166L70.4011 5.48752C70.4013 3.2239 68.9124 1.87771 66.4399 1.87755L6.03248 1.87346C3.56074 1.8733 2.07121 3.21928 2.07105 5.4829L2.06949 26.512C2.06934 28.7756 3.55866 30.1221 6.03042 30.1222L66.4379 30.1263Z" fill="#FFF100"/>
<path fill-rule="evenodd" clip-rule="evenodd" d="M61.543 22.3915C58.508 22.3913 55.6396 20.8957 55.6398 17.6334C55.6401 14.3716 58.5088 12.8764 61.5437 12.8766C64.5792 12.8768 67.4472 14.3724 67.447 17.6342C67.4467 20.8965 64.5786 22.3917 61.543 22.3915ZM10.307 19.6351L17.3598 19.6356L18.6438 22.1507L22.796 22.151L16.2356 9.82625L11.7141 9.82595L5.47006 22.1498L9.11267 22.1501L10.307 19.6351ZM26.5342 9.95215L23.3395 9.95194L23.3386 22.151L26.5333 22.1513L26.5342 9.95215ZM38.0106 20.3848L38.011 15.4916C37.3916 13.1569 34.4624 13 32.804 12.9999C30.3939 12.9997 27.8955 13.3903 27.5414 16.1595L30.6563 16.1597C30.7448 15.6332 30.88 14.7775 32.4281 14.7776C33.224 14.7777 34.5921 14.8286 34.592 15.8311C34.5919 16.3408 33.9954 16.4939 33.5086 16.5446L30.5926 16.8676C28.6247 17.0882 27.1652 17.9885 27.1651 19.7557C27.165 21.6247 28.9779 22.3893 30.7469 22.3894C32.8474 22.3895 33.9724 21.6416 34.6801 21.0811C34.7464 21.5908 34.7908 21.7269 34.9675 22.1518L38.0461 22.152L38.0106 20.3848ZM55.1812 16.0879C55.1814 14.1 53.0288 13.3138 50.7668 13.3136C48.9169 13.3135 48.0686 14.3155 47.6766 14.7573C46.8936 13.7889 46.1321 13.3133 44.4567 13.3132C42.4118 13.3131 42.3435 14.1564 41.9515 14.7503L41.9079 14.7503L41.908 13.4255L38.7325 13.4252L38.7319 22.1521L42.0381 22.1523L42.0385 16.9594C42.0386 15.9736 42.4959 15.4153 43.9316 15.4429C45.3258 15.4688 45.3689 16.2633 45.3688 17.0279L45.3685 22.1525L48.805 22.1528L48.8054 17.045C48.8054 15.9741 49.0892 15.4086 50.6117 15.4434C51.7638 15.4692 52.2189 15.9065 52.1351 16.9773L52.1347 22.153L55.1808 22.1532L55.1812 16.0879ZM61.5436 14.881C59.2515 14.8808 58.8263 16.4787 58.8262 17.6337C58.8261 18.7891 59.2511 20.3863 61.5432 20.3864C63.8352 20.3866 64.2604 18.7894 64.2605 17.634C64.2606 16.4791 63.8356 14.8811 61.5436 14.881ZM13.7674 12.454L16.1526 17.2792L11.5226 17.2789L13.7674 12.454ZM34.4619 18.9064C34.4619 20.0107 33.0684 20.6903 31.6975 20.6902C31.1009 20.6901 30.2608 20.4353 30.2608 19.6029C30.2609 18.6174 31.2114 18.3964 32.3614 18.2438C33.6438 18.0911 34.1524 17.938 34.462 17.7509L34.4619 18.9064ZM68.6164 12.5232C68.6163 13.3302 67.9876 13.7994 67.2848 13.7994C66.5789 13.7993 65.9498 13.33 65.9499 12.523C65.9499 11.7169 66.5791 11.2478 67.285 11.2478C67.9878 11.2478 68.6164 11.7171 68.6164 12.5232ZM68.2333 12.5232C68.2334 11.9366 67.7983 11.5449 67.285 11.5449C66.7581 11.5449 66.3329 11.9365 66.3329 12.523C66.3328 13.1108 66.7579 13.5056 67.2848 13.5023L67.2848 13.5057C67.7981 13.5057 68.2333 13.1109 68.2333 12.5232ZM67.8999 13.2086L67.538 13.2085L67.2077 12.6314L67.0638 12.6314L67.0637 13.2085L66.7579 13.2085L66.758 11.835L67.2919 11.835C67.6609 11.835 67.8785 11.9366 67.8785 12.2499C67.8784 12.5032 67.724 12.5941 67.5345 12.6079L67.8999 13.2086ZM67.5521 12.2198C67.5521 12.0782 67.3942 12.0678 67.2779 12.0678L67.0638 12.0678L67.0638 12.3984L67.3345 12.3984C67.4709 12.3984 67.5521 12.3719 67.5521 12.2198Z" fill="#FFF100"/>
</svg>
