<svg width="180" height="42" viewBox="0 0 180 42" fill="none" xmlns="http://www.w3.org/2000/svg">
<path d="M12.5679 4.58354L15.049 2.95703V37.1137L12.5679 35.5975V4.58354Z" fill="#1B4398"/>
<path d="M8.90149 4.88574L3.66357 6.67766V40.9998L8.90149 39.3181V4.88574Z" fill="#3686FF"/>
<path d="M20.7281 1L15.4902 2.79192V37.114L20.7281 35.4324V1Z" fill="#3686FF"/>
<path d="M3.66357 22.3516V27.3551L28.1991 19.2777L25.2906 15.2666L3.66357 22.3516Z" fill="#0724AC" fill-opacity="0.9"/>
<path d="M0.741211 8.30522L3.22233 6.67871V40.8354L0.741211 39.3192V8.30522Z" fill="#1B4398"/>
<path fill-rule="evenodd" clip-rule="evenodd" d="M28.5988 18.1477L25.6352 14.1504L3.66357 21.3732V22.3381L25.3044 15.2807L27.6477 18.5199L28.5988 18.1477Z" fill="#083BFF" fill-opacity="0.8"/>
<path d="M37.3286 34H41.7686V24.4H50.1686V34H54.5786V11.8H50.1686V20.56H41.7686V11.8H37.3286V34ZM60.0337 34H64.4737V11.8H60.0337V34ZM74.3461 34H78.7861V15.49H85.0561V11.8H68.0761V15.49H74.3461V34ZM96.4221 34.42C102.302 34.42 106.322 30.04 106.322 22.81C106.322 15.61 102.302 11.41 96.4221 11.41C90.5121 11.41 86.4921 15.58 86.4921 22.81C86.4921 30.04 90.5121 34.42 96.4221 34.42ZM96.4221 30.58C93.0921 30.58 91.0221 27.55 91.0221 22.81C91.0221 18.07 93.0921 15.22 96.4221 15.22C99.7221 15.22 101.822 18.07 101.822 22.81C101.822 27.55 99.7221 30.58 96.4221 30.58ZM110.688 34H118.608C123.468 34 127.188 31.93 127.188 27.46C127.188 24.49 125.418 22.78 123.048 22.21V22.09C124.938 21.4 126.048 19.33 126.048 17.29C126.048 13.15 122.568 11.8 118.008 11.8H110.688V34ZM115.128 20.83V15.22H117.768C120.438 15.22 121.728 15.97 121.728 17.92C121.728 19.72 120.528 20.83 117.708 20.83H115.128ZM115.128 30.58V24.13H118.218C121.278 24.13 122.868 25.06 122.868 27.22C122.868 29.5 121.218 30.58 118.218 30.58H115.128ZM131.108 34H135.548V11.8H131.108V34ZM145.42 34H149.86V15.49H156.13V11.8H139.15V15.49H145.42V34ZM167.496 34.42C173.376 34.42 177.396 30.04 177.396 22.81C177.396 15.61 173.376 11.41 167.496 11.41C161.586 11.41 157.566 15.58 157.566 22.81C157.566 30.04 161.586 34.42 167.496 34.42ZM167.496 30.58C164.166 30.58 162.096 27.55 162.096 22.81C162.096 18.07 164.166 15.22 167.496 15.22C170.796 15.22 172.896 18.07 172.896 22.81C172.896 27.55 170.796 30.58 167.496 30.58Z" fill="black"/>
</svg>
