<svg width="20" height="20" viewBox="0 0 20 20" fill="none" xmlns="http://www.w3.org/2000/svg">
<path fill-rule="evenodd" clip-rule="evenodd" d="M8.74975 17.4995C3.92489 17.4995 0 13.5746 0 8.74975C0 3.92489 3.92489 0 8.74975 0C13.5746 0 17.4995 3.92489 17.4995 8.74975C17.4995 13.5746 13.5746 17.4995 8.74975 17.4995ZM8.74986 2.50006C5.30371 2.50006 2.50004 5.30373 2.50004 8.74988C2.50004 12.196 5.30371 14.9997 8.74986 14.9997C12.196 14.9997 14.9997 12.196 14.9997 8.74988C14.9997 5.30373 12.196 2.50006 8.74986 2.50006ZM16.6418 14.8749L19.6329 17.866C20.1217 18.3548 20.1217 19.1447 19.6329 19.6335C19.3892 19.8772 19.0692 19.9997 18.7492 19.9997C18.4292 19.9997 18.1092 19.8772 17.8655 19.6335L14.8743 16.6423C15.5356 16.1286 16.128 15.5361 16.6418 14.8749Z" fill="#E4E7EA"/>
</svg>
