<svg width="44" height="44" viewBox="0 0 44 44" fill="none" xmlns="http://www.w3.org/2000/svg">
<circle cx="22" cy="22" r="22" fill="#E4E7EA"/>
<path d="M27.7778 31.9997V29.7775C27.7778 28.5987 27.3095 27.4683 26.476 26.6348C25.6425 25.8013 24.5121 25.333 23.3333 25.333H14.4444C13.2657 25.333 12.1352 25.8013 11.3017 26.6348C10.4683 27.4683 10 28.5987 10 29.7775V31.9997" stroke="#808386" stroke-width="2" stroke-linecap="round" stroke-linejoin="round"/>
<path d="M18.8888 20.8889C21.3434 20.8889 23.3332 18.899 23.3332 16.4444C23.3332 13.9898 21.3434 12 18.8888 12C16.4342 12 14.4443 13.9898 14.4443 16.4444C14.4443 18.899 16.4342 20.8889 18.8888 20.8889Z" stroke="#808386" stroke-width="2" stroke-linecap="round" stroke-linejoin="round"/>
<path d="M34.4442 31.9998V29.7775C34.4434 28.7928 34.1157 27.8362 33.5124 27.0579C32.909 26.2796 32.0643 25.7237 31.1108 25.4775" stroke="#808386" stroke-width="2" stroke-linecap="round" stroke-linejoin="round"/>
<path d="M26.6665 12.1445C27.6225 12.3893 28.4699 12.9453 29.075 13.7249C29.6801 14.5044 30.0086 15.4632 30.0086 16.4501C30.0086 17.4369 29.6801 18.3957 29.075 19.1753C28.4699 19.9549 27.6225 20.5109 26.6665 20.7556" stroke="#808386" stroke-width="2" stroke-linecap="round" stroke-linejoin="round"/>
</svg>
